#!OML:ASF C:\ViconDB\ViconDB\414\Spring2016\041811\Spring2016.ASF
:FULLY-SPECIFIED
:DEGREES
181
root 10.2745 17.3896 2.2945 -175.967 -14.3664 -186.677
lowerback -1.79798 -2.11768 -0.415319
upperback 0.894326 -2.81082 -0.523382
thorax 1.91704 -1.40813 -0.400238
lowerneck -12.6224 4.53485 -8.63938
upperneck 25.7216 5.63442 6.53253
head 9.72653 2.0747 4.3359
rclavicle -2.48978e-014 6.36111e-015
rhumerus -85.0211 25.8981 -112.438
rradius 93.0965
rwrist 37.2962
rhand -45.5435 -0.876908
rfingers 7.12502
rthumb -18.3066 -30.0355
lclavicle -2.48978e-014 6.36111e-015
lhumerus -96.9309 -48.1521 123.398
lradius 84.0711
lwrist -27.8045
lhand -45.9132 0.633029
lfingers 7.12502
lthumb -18.6622 29.7578
rfemur 194.581 32.6188 -159.235
rtibia 29.8987
rfoot -26.9602 -57.0048
rtoes -20.2769
lfemur 9.62181 -0.0221471 -29.3844
ltibia 15.308
lfoot -24.8226 -7.81911
ltoes -16.9407
182
root 10.2893 17.3717 2.13514 -176.067 -14.9267 -186.419
lowerback -1.89454 -2.24494 -0.404289
upperback 0.748329 -2.97999 -0.443594
thorax 1.82462 -1.49198 -0.330889
lowerneck -12.5111 4.52206 -8.57825
upperneck 25.8574 5.50255 6.77076
head 9.75558 2.03246 4.39654
rclavicle 7.688e-014 1.35174e-014
rhumerus -85.081 25.6486 -112.145
rradius 93.3998
rwrist 37.1981
rhand -45.4284 -0.420705
rfingers 7.12502
rthumb -18.1958 -29.5896
lclavicle 7.688e-014 1.35174e-014
lhumerus -97.8707 -47.8016 124.381
lradius 83.9206
lwrist -27.2825
lhand -46.2742 1.05517
lfingers 7.12502
lthumb -19.0094 30.1462
rfemur 193.205 32.7626 -159.35
rtibia 30.5096
rfoot -26.1057 -57.1493
rtoes -19.8682
lfemur 10.3768 -0.621944 -28.9856
ltibia 15.1059
lfoot -24.7708 -7.51593
ltoes -17.6162
183
root 10.3028 17.366 1.97515 -176.231 -15.3781 -186.043
lowerback -1.97037 -2.34996 -0.384362
upperback 0.625742 -3.12115 -0.272256
thorax 1.74964 -1.5622 -0.171823
lowerneck -12.4093 4.53363 -8.50763
upperneck 25.9304 5.45179 6.86389
head 9.76411 2.0172 4.41084
rclavicle 1.82385e-014 1.11319e-014
rhumerus -85.0374 25.4282 -111.751
rradius 93.5791
rwrist 37.1915
rhand -45.2998 -0.347902
rfingers 7.12502
rthumb -18.0722 -29.5283
lclavicle 1.82385e-014 1.11319e-014
lhumerus -98.5781 -47.3989 125.334
lradius 83.566
lwrist -26.883
lhand -46.6885 1.57629
lfingers 7.12502
lthumb -19.4078 30.6278
rfemur 191.97 32.6501 -159.432
rtibia 30.9979
rfoot -25.9717 -56.9164
rtoes -20.8688
lfemur 11.1934 -1.03179 -28.453
ltibia 14.7857
lfoot -24.6226 -7.16704
ltoes -18.2979
184
root 10.3189 17.3646 1.81196 -176.432 -15.7887 -185.636
lowerback -1.96561 -2.42483 -0.259728
upperback 0.460145 -3.22454 -0.210146
thorax 1.57395 -1.61245 -0.176259
lowerneck -12.2377 4.5371 -8.31968
upperneck 26.0687 5.29252 7.12944
head 9.78786 1.97474 4.45496
rclavicle -8.0632e-014 3.18055e-015
rhumerus -85.17 25.171 -111.581
rradius 93.8223
rwrist 37.2309
rhand -45.0122 -0.070632
rfingers 7.12502
rthumb -17.7953 -29.2764
lclavicle -8.0632e-014 3.18055e-015
lhumerus -99.3421 -46.8463 125.871
lradius 83.6878
lwrist -26.6268
lhand -46.8294 2.07853
lfingers 7.12502
lthumb -19.5433 31.1163
rfemur 190.869 32.2366 -159.586
rtibia 31.3865
rfoot -25.208 -56.9757
rtoes -21.6852
lfemur 12.079 -1.29203 -27.8608
ltibia 14.3806
lfoot -24.3218 -6.74424
ltoes -19.2508
185
root 10.3407 17.3702 1.6541 -176.609 -16.1297 -185.243
lowerback -1.9057 -2.47683 -0.233618
upperback 0.32547 -3.29599 -0.0913289
thorax 1.40785 -1.64822 -0.064969
lowerneck -12.1218 4.55861 -8.08143
upperneck 26.0998 5.24807 7.11541
head 9.78834 1.96907 4.40204
rclavicle 3.4017e-014 1.11319e-014
rhumerus -85.1056 24.8823 -111.281
rradius 93.9591
rwrist 37.4063
rhand -45.1192 0.145922
rfingers 7.12502
rthumb -17.8984 -29.0505
lclavicle 3.4017e-014 1.11319e-014
lhumerus -99.6523 -46.3492 126.221
lradius 83.5711
lwrist -26.1916
lhand -46.9488 2.1533
lfingers 7.12502
lthumb -19.6581 31.1794
rfemur 189.774 31.3581 -159.987
rtibia 31.7085
rfoot -23.4285 -57.1359
rtoes -23.3369
lfemur 12.8007 -1.78647 -27.3245
ltibia 14.1831
lfoot -23.9661 -6.22121
ltoes -19.9313
186
root 10.3608 17.3695 1.4914 -176.933 -16.32 -184.789
lowerback -1.82408 -2.49395 -0.0843131
upperback 0.271314 -3.32345 -0.000307366
thorax 1.3036 -1.66111 -0.0503587
lowerneck -12.0236 4.56419 -7.82724
upperneck 26.1349 5.17772 7.10378
head 9.79629 1.95308 4.34553
rclavicle -4.00054e-015 6.36111e-015
rhumerus -85.0326 24.8471 -111.028
rradius 94.1703
rwrist 37.4253
rhand -44.677 0.0587574
rfingers 7.12502
rthumb -17.4728 -29.176
lclavicle -4.00054e-015 6.36111e-015
lhumerus -99.8108 -45.9116 126.406
lradius 83.4426
lwrist -25.887
lhand -46.9814 2.44023
lfingers 7.12502
lthumb -19.6894 31.4631
rfemur 188.481 30.2063 -160.456
rtibia 32.0291
rfoot -20.6553 -57.4388
rtoes -24.8241
lfemur 13.4505 -2.18645 -26.7565
ltibia 14.3525
lfoot -23.7448 -5.7165
ltoes -20.4699
187
root 10.381 17.3764 1.32953 -177.239 -16.519 -184.258
lowerback -1.75306 -2.51807 0.0632185
upperback 0.208675 -3.36095 0.164388
thorax 1.20109 -1.67959 0.0399244
lowerneck -12.0185 4.56709 -7.6729
upperneck 26.2833 5.10912 7.1545
head 9.85672 1.93031 4.33574
rclavicle -2.0773e-014 -2.14687e-014
rhumerus -84.9138 24.7863 -110.71
rradius 94.2613
rwrist 37.6798
rhand -44.3451 0.283305
rfingers 7.12502
rthumb -17.1534 -28.9795
lclavicle -2.0773e-014 -2.14687e-014
lhumerus -99.6185 -45.4315 126.468
lradius 83.0138
lwrist -25.9544
lhand -47.2159 2.80969
lfingers 7.12502
lthumb -19.9148 31.8093
rfemur 187.296 29.6837 -160.488
rtibia 32.4193
rfoot -19.3509 -57.4652
rtoes -25.877
lfemur 13.8347 -2.6537 -26.1284
ltibia 14.9258
lfoot -23.4135 -5.16165
ltoes -21.0462
